<?xml version="1.0" encoding="UTF-8" standalone="no"?>
<svg width="78px" height="72px" viewBox="0 0 78 72" version="1.1" xmlns="http://www.w3.org/2000/svg" xmlns:xlink="http://www.w3.org/1999/xlink" xmlns:sketch="http://www.bohemiancoding.com/sketch/ns">
    <!-- Generator: Sketch 3.2.2 (9983) - http://www.bohemiancoding.com/sketch -->
    <title>SOC_logo_ffffff</title>
    <desc>Created with Sketch.</desc>
    <defs></defs>
    <g id="Page-1" stroke="none" stroke-width="1" fill="none" fill-rule="evenodd" sketch:type="MSPage">
        <g id="Artboard-33" sketch:type="MSArtboardGroup" transform="translate(-6069.000000, -2716.000000)" fill="#FFFFFF">
            <path d="M6082.89873,2736.04197 C6107.26873,2724.31697 6141.86173,2713.03897 6146.33973,2717.41997 C6150.66473,2721.64997 6132.32673,2780.98397 6132.32673,2780.98397 C6127.00973,2795.00997 6129.25873,2783.39397 6129.97173,2780.07997 C6136.65973,2748.67297 6149.55973,2725.99997 6142.44073,2721.53197 C6135.33973,2717.06797 6102.77673,2729.54197 6082.81173,2737.21297 C6077.16173,2740.17597 6074.88573,2740.30197 6082.89873,2736.04197 L6082.89873,2736.04197 Z M6139.07273,2726.86297 C6120.06573,2752.03097 6108.73473,2763.17497 6104.67673,2764.74597 C6099.73173,2766.65097 6096.27073,2777.78197 6082.28873,2751.72297 C6082.02173,2751.30597 6079.08973,2748.51097 6081.95573,2753.77397 C6098.03973,2779.65897 6102.85173,2769.55597 6108.54773,2765.09197 C6114.24673,2760.64897 6128.71973,2750.33497 6140.38473,2727.25997 C6141.12273,2725.78797 6139.07273,2726.86297 6139.07273,2726.86297 L6139.07273,2726.86297 Z M6122.32173,2785.53397 C6086.59973,2772.62697 6081.61673,2786.27297 6072.75673,2776.17197 C6069.69873,2772.76297 6070.71573,2769.10197 6070.71573,2769.10197 C6071.26473,2765.73297 6069.75973,2767.86597 6069.82873,2769.10197 C6069.82873,2769.10197 6069.03873,2774.47497 6073.18173,2778.39497 C6083.24373,2785.81197 6078.97873,2778.41297 6125.91973,2787.98497 C6128.18673,2788.22397 6122.32173,2785.53397 6122.32173,2785.53397 L6122.32173,2785.53397 Z" id="SOC_logo_ffffff" sketch:type="MSShapeGroup"></path>
        </g>
    </g>
</svg>
